<svg xmlns="http://www.w3.org/2000/svg" viewBox="0 0 76.11 16"><defs><style>.cls-1,.cls-2{fill:#60677d;}.cls-2{font-size:12px;font-family:GravurCondensedRegCE, Gravur Condensed CE;}</style></defs><title>ia-website-nav-image</title><g id="Layer_2" data-name="Layer 2"><g id="Layer_2-2" data-name="Layer 2"><polygon class="cls-1" points="67.11 3 61.11 8 61.11 16 65.11 16 65.11 12 69.11 12 69.11 16 73.11 16 73.11 8 67.11 3"/><polygon class="cls-1" points="67.11 3 61.11 8 61.11 16 65.11 16 65.11 12 69.11 12 69.11 16 73.11 16 73.11 8 67.11 3"/><polygon class="cls-1" points="60.11 8 67.11 2 74.11 8 76.11 8 67.11 0 58.11 8 60.11 8"/><polygon class="cls-1" points="60.11 8 67.11 2 74.11 8 76.11 8 67.11 0 58.11 8 60.11 8"/><polygon class="cls-1" points="73.11 4 71.11 2 71.11 0 73.11 0 73.11 4"/><polygon class="cls-1" points="73.11 4 71.11 2 71.11 0 73.11 0 73.11 4"/><text class="cls-2" transform="translate(2.19 12.78)">IA website</text></g></g></svg>