<svg xmlns="http://www.w3.org/2000/svg" viewBox="0 0 22 21.86"><defs><style>.cls-1{fill:#50dab0;}</style></defs><title>open-document-icon</title><g id="Layer_2" data-name="Layer 2"><g id="Layer_2-2" data-name="Layer 2"><path class="cls-1" d="M22,.83a.18.18,0,0,1,0-.1c-.05-.09-.05-.14-.09-.18V.46L21.45.09h-.09L21.17,0H12.05a1.38,1.38,0,0,0,0,2.75h5.27l-6.09,6a1.37,1.37,0,0,0,1,2.33,1.17,1.17,0,0,0,1-.41l6.1-6.09V9.81a1.38,1.38,0,0,0,2.75,0V1.24A.54.54,0,0,0,22,1Z"/><path class="cls-1" d="M16.87,19.11H2.75V5H7.38V2.29h-6A1.33,1.33,0,0,0,0,3.67V20.48a1.33,1.33,0,0,0,1.38,1.38H18.24a1.38,1.38,0,0,0,1.38-1.38v-6H16.87Z"/></g></g></svg>